<svg width="849" height="242" viewBox="0 0 849 242" fill="none" xmlns="http://www.w3.org/2000/svg">
<path d="M101.6 1.6001C51.9 10.6001 12.1 50.4001 2.29996 101C0.399961 111 0.199961 133.1 1.89996 143.1C9.19996 185.9 38.1 222.3 77.3 238C91.7 243.7 93 242.6 93 225.1V212.3L83.7 212.8C66.3 213.7 57.3 208.7 50.4 194.4C47 187.6 44.2 184.2 36.1 177.2C31.4 173.3 32.6 171.6 39.7 172.2C46.7 172.8 51.9 176.4 58 185C60.9 189 64.5 192.7 67.5 194.5C71.7 197.1 73.3 197.5 79.4 197.5C83.3 197.5 88.2 196.9 90.2 196.2C93.3 195.1 93.9 194.4 94.5 191C94.9 188.9 96.4 185.2 98 182.7L100.8 178.3L90.9 176.2C60.2 169.8 45.7 151.2 45.6 118.5C45.6 103.6 47.5 97.7001 56.5 85.4001C57.8 83.7001 57.8 82.7001 56.9 80.4001C55.2 76.0001 55.4 63.3001 57.4 56.7001C59 51.1001 59.1 51.0001 62.8 51.0001C68.2 51.0001 77.4 54.3001 85.9 59.3001L93.2 63.6001L101.8 61.8001C113.6 59.3001 134.4 59.3001 146.3 61.8001L155.1 63.6001L161.5 59.8001C170.5 54.4001 180.4 50.8001 185.4 51.2001C189.2 51.5001 189.5 51.7001 190.8 56.0001C192.5 61.2001 192.8 77.3001 191.3 80.9001C190.5 82.9001 191 84.3001 194.7 89.7001C200 97.6001 202 104 202.7 115C203.8 133.4 198 151.3 187.5 161.5C179.1 169.7 168.1 174.5 150.7 177.5C147.1 178.1 146.9 178.3 148.4 179.9C149.2 180.8 150.9 183.8 152.2 186.5C154.3 191.1 154.5 193.3 155 215.3C155.5 240.8 155.6 240.9 160.8 241C164.5 241 178.2 235.3 186.8 230.1C235.3 201 257.9 145.2 243.4 90.8001C237.8 69.9001 227.6 52.5001 211.6 36.4001C192.7 17.5001 170.9 6.00009 145.6 1.50009C134.6 -0.399908 112.4 -0.299902 101.6 1.6001Z" fill="black"/>
<path d="M334.5 45.5001C306.3 51.7001 292.3 70.9001 288.8 108C286.8 130.3 290 152.6 297.3 166.5C301.9 175.2 310.9 183.9 320 188.3C331.1 193.7 341.1 195.3 358.9 194.7C374.5 194.2 379.5 193.1 391.3 187.8L398 184.7V146.9V109H372.5H347V122.5V136H357H367V150.4V164.7L363.9 165.4C358.2 166.5 346.5 166 341.2 164.5C331.4 161.5 325.4 154 321.9 140C320.1 132.9 319.9 129.6 320.2 117.1C320.7 101.2 322.5 93.8001 327.7 85.9001C330.6 81.4001 337.6 76.5001 343.4 74.7001C349.8 72.8001 369.2 73.2001 378.3 75.4001C382.5 76.5001 386.3 77.1001 386.5 76.8001C386.8 76.5001 388.3 70.9001 389.9 64.4001C391.9 56.3001 392.5 52.1001 391.8 51.3001C390.4 49.5001 379.5 46.2001 371.5 45.0001C361.8 43.7001 341.7 43.9001 334.5 45.5001Z" fill="black"/>
<path d="M536.5 50.2001C536.2 50.9001 536.1 83.2001 536.2 122L536.5 192.5L550.4 192.8C559.7 193 564.7 192.7 565.6 191.9C566.7 191 567 185.1 567 160.9V131H587.5H608V161.4C608 188.2 608.2 191.9 609.6 192.4C611.9 193.3 636.3 193.1 637.8 192.2C638.8 191.5 639 176.5 638.8 120.4L638.5 49.5001H623.5H608.5L608.2 76.2001L608 103H587.5H567V77.2001C567 58.5001 566.7 51.1001 565.8 50.2001C564.1 48.5001 537.1 48.5001 536.5 50.2001Z" fill="black"/>
<path d="M756.2 50.2001C754.5 51.9001 754.4 190 756.2 191.8C757.5 193.1 774.7 193.5 776.7 192.2C777.3 191.8 778.2 190.2 778.5 188.7C778.9 187.2 779.5 186.1 779.9 186.2C794.3 193.8 800.7 195.4 814 194.8C821 194.4 824.7 193.7 828.1 192.1C842.1 185.4 848.2 170.5 848.3 142C848.4 115.4 842.3 101.6 827.5 94.8001C823.2 92.8001 820.9 92.5001 811 92.5001C799.5 92.6001 799.3 92.6001 787.8 97.5001C786.2 98.1001 786 96.5001 785.8 73.9001L785.5 49.5001L771.5 49.2001C761.4 49.0001 757.1 49.3001 756.2 50.2001ZM810.5 119.4C812 120.4 814.2 123.3 815.3 125.8C817.2 129.9 817.5 132.2 817.5 144.5C817.4 160.5 816.2 164.7 810.8 168C806.4 170.6 798.7 170.6 791.5 167.9L786 165.9V143.6V121.3L790.3 119.7C792.6 118.8 795.4 117.9 796.5 117.6C800.2 116.7 807.9 117.7 810.5 119.4Z" fill="black"/>
<path d="M425.5 53C417.8 54.7 412.9 60.4 412.2 68.3C411.2 82.1 425.6 91.4 437.5 84.7C446.7 79.5 448.9 65.9 441.7 58.2C437.6 53.8 431.1 51.7 425.5 53Z" fill="black"/>
<path d="M470 81.3001V95.6001L462.3 97.5001L454.5 99.5001L454.2 109.4C454 116.7 454.3 119.6 455.2 120.2C455.9 120.6 459.5 121 463.2 121H469.8L470.2 146.9L470.5 172.7L474 179.6C477 185.4 478.4 187 482.9 189.7C485.8 191.4 490.4 193.4 493.2 193.9C499.4 195.3 511 195.1 517.5 193.6L522.5 192.5L522.8 181.2L523.1 170H516.5C509.1 170 503.7 168.2 502.1 165.2C501.4 163.9 501 155.2 501 142.1V121H510.9C518.1 121 521.1 120.6 521.9 119.6C522.7 118.7 523 114.4 522.8 106.9L522.5 95.5001L511.8 95.2001L501.1 94.9001L500.8 81.2001L500.5 67.5001L485.3 67.2001L470 66.9001V81.3001Z" fill="black"/>
<path d="M413.7 95.7C412.8 96.5 412.8 188.3 413.6 190.4C414.1 191.8 416.4 192 429.1 192H444V143.5V95H429.2C421 95 414 95.3 413.7 95.7Z" fill="black"/>
<path d="M652.2 134.2C652.5 172.8 652.5 173.6 654.8 178.5C660 189.7 667.7 194 683.9 194.8C696 195.4 702.5 194.2 712.6 189.5L719.7 186.3L720.6 189.4C721.5 192.5 721.5 192.5 729.5 192.8C733.9 193 738.5 192.8 739.8 192.5L742 192L741.8 143.7L741.5 95.5002H726.5H711.5L711.2 130.7L711 165.9L705.4 167.9C696.3 171.4 686.7 170.2 684.4 165.3C683.9 164.3 683.3 148.2 683 129.5L682.5 95.5002L667.2 95.2002L651.9 94.9002L652.2 134.2Z" fill="black"/>
<path d="M44.5 177C44.9 177.6 45.6 177.8 46.1 177.5C47.5 176.6 47.2 176 45.4 176C44.6 176 44.2 176.5 44.5 177Z" fill="black"/>
<path d="M49.6 181.5C50 182.3 50.6 183 51.1 183C51.6 183 52 182.3 52 181.5C52 180.7 51.3 180 50.5 180C49.6 180 49.3 180.6 49.6 181.5Z" fill="black"/>
<path d="M54.2 187.6C54.4 188.7 55.3 189.6 56.4 189.8C57.7 190.1 58.1 189.7 57.8 188.4C57.6 187.3 56.7 186.4 55.6 186.2C54.3 185.9 53.9 186.3 54.2 187.6Z" fill="black"/>
<path d="M60 194.9C60 196.4 60.6 197 62.1 197C64.6 197 64.3 193.7 61.7 193.2C60.5 193 60 193.5 60 194.9Z" fill="black"/>
<path d="M68.5 198.9C67.6 200.5 68.8 202 71.1 202C72.5 202 73 201.4 72.8 200.3C72.4 198.3 69.5 197.4 68.5 198.9Z" fill="black"/>
<path d="M87.7 199.6C87.3 200 87 200.7 87 201.2C87 202.5 92 201.8 92.3 200.5C92.5 199.3 88.7 198.6 87.7 199.6Z" fill="black"/>
<path d="M78 201.4C78 203 79.9 203.9 81.8 203.3C84 202.5 83.1 200 80.5 200C79 200 78 200.6 78 201.4Z" fill="black"/>
</svg>
