<svg width="0" height="0" class="hidden">
  <symbol fill="freen" xmlns="http://www.w3.org/2000/svg" viewBox="0 0 58 29" id="car">
    <path d="M33.6912 1.00002C33.6016 1.00055 33.4109 1.01812 33.3071 1.05568L33.0993 1.14474L33.6133 3.27856L26.2027 3.29526C26.058 3.29556 25.9125 3.29443 25.7666 3.29341C25.475 3.29137 25.1809 3.2872 24.8853 3.28042C24.4523 3.27049 24.0143 3.2559 23.5753 3.23774C23.5518 3.23677 23.5284 3.23503 23.5048 3.23403C22.6182 3.19662 21.7232 3.14546 20.8311 3.08931C19.6243 3.01315 18.4252 2.92855 17.2613 2.85923C16.3987 2.80785 15.5553 2.76544 14.7452 2.74048C14.1889 2.72333 13.6489 2.71337 13.1273 2.71636C12.871 2.71782 12.6186 2.7219 12.3721 2.72934C12.1256 2.73679 11.8745 2.75044 11.6206 2.76831C11.4937 2.77724 11.3666 2.78673 11.2384 2.798C10.8543 2.83175 10.4639 2.87646 10.075 2.92788C10.0744 2.92794 10.0738 2.92782 10.0732 2.92788C9.81355 2.96223 9.5555 3.00064 9.29761 3.04106C9.03969 3.08148 8.78262 3.12405 8.52947 3.16908C8.27691 3.21401 8.02654 3.26203 7.7817 3.3101C7.78111 3.31022 7.78044 3.30998 7.77985 3.3101C7.65716 3.3342 7.53821 3.35785 7.41804 3.38247C7.05814 3.45619 6.70946 3.53185 6.37897 3.60697C6.37837 3.60709 6.37772 3.60686 6.37712 3.60697C6.15646 3.65714 5.94444 3.70644 5.74068 3.75541C5.33314 3.85329 4.96198 3.94747 4.6404 4.03188C4.15806 4.15849 3.78647 4.26505 3.56607 4.32875C3.4192 4.37125 3.3397 4.39555 3.3397 4.39555L2.52704 4.6182C2.47346 4.63297 2.42146 4.65935 2.37118 4.69613C2.3541 4.70863 2.33779 4.72202 2.32108 4.73695C2.25579 4.79512 2.19337 4.87177 2.13368 4.96518C2.13341 4.96559 2.13396 4.96662 2.13368 4.96703C2.10397 5.01363 2.07297 5.06444 2.04462 5.11918C2.04437 5.11966 2.04487 5.12056 2.04462 5.12103C2.01627 5.17588 1.98815 5.23469 1.96113 5.29731C1.96091 5.29784 1.96135 5.29862 1.96113 5.29916C1.7434 5.80441 1.56807 6.55381 1.43047 7.44966C1.43038 7.45025 1.43056 7.45092 1.43047 7.45151C1.42834 7.46542 1.42702 7.48022 1.4249 7.49419C1.39494 7.692 1.366 7.89783 1.33955 8.10836C1.33774 8.12277 1.33578 8.13658 1.33399 8.15104C1.3042 8.3911 1.27777 8.63806 1.25234 8.89139C1.25229 8.89198 1.2524 8.89264 1.25234 8.89324C1.23967 9.01961 1.22687 9.14824 1.21524 9.27732C1.21518 9.27792 1.21529 9.27856 1.21524 9.27917C1.20361 9.40827 1.19244 9.53741 1.18184 9.66882C1.18179 9.66942 1.18189 9.67007 1.18184 9.67068C1.1606 9.93416 1.14157 10.2018 1.12432 10.4722C1.12428 10.4728 1.12436 10.4735 1.12432 10.4741C1.07251 11.2866 1.03766 12.1241 1.01856 12.9418C1.01855 12.9425 1.01858 12.9431 1.01856 12.9437C1.00583 13.4893 1 14.0251 1 14.5413C1 14.5987 1.00164 14.6578 1.00186 14.7157C1.00164 14.7736 1 14.8327 1 14.8901C1 15.4063 1.00583 15.9421 1.01855 16.4877C1.01857 16.4883 1.01854 16.4889 1.01855 16.4895C1.03765 17.3073 1.07251 18.1448 1.12431 18.9573C1.12435 18.9579 1.12427 18.9585 1.12431 18.9591C1.14157 19.2295 1.16059 19.4972 1.18183 19.7607C1.18188 19.7613 1.18178 19.7619 1.18183 19.7625C1.19243 19.8939 1.2036 20.0231 1.21523 20.1522C1.21528 20.1528 1.21518 20.1534 1.21523 20.154C1.22686 20.2831 1.23966 20.4117 1.25234 20.5381C1.2524 20.5387 1.25228 20.5394 1.25234 20.54C1.27777 20.7933 1.3042 21.0402 1.33398 21.2803C1.33577 21.2948 1.33774 21.3086 1.33955 21.323C1.36599 21.5335 1.39493 21.7393 1.4249 21.9372C1.42701 21.9511 1.42833 21.9659 1.43046 21.9798C1.43055 21.9804 1.43037 21.9811 1.43046 21.9817C1.56806 22.8775 1.74339 23.6269 1.96112 24.1322C1.96134 24.1327 1.9609 24.1335 1.96112 24.134C1.98814 24.1967 2.01626 24.2555 2.04462 24.3103C2.04486 24.3108 2.04437 24.3117 2.04462 24.3122C2.07297 24.3669 2.10397 24.4177 2.13368 24.4643C2.13395 24.4647 2.1334 24.4658 2.13368 24.4662C2.19336 24.5596 2.25579 24.6362 2.32108 24.6944C2.33779 24.7093 2.35409 24.7227 2.37117 24.7352C2.42146 24.772 2.47345 24.7984 2.52703 24.8131L3.3397 25.0358C3.3397 25.0358 3.41919 25.0601 3.56607 25.1026C3.78641 25.1663 4.15804 25.2729 4.6404 25.3995C4.96195 25.4839 5.33313 25.5781 5.74068 25.6759C5.94442 25.7249 6.15643 25.7742 6.37712 25.8244C6.37772 25.8245 6.37837 25.8243 6.37897 25.8244C6.70946 25.8995 7.0581 25.9752 7.41803 26.0489C7.53821 26.0735 7.65715 26.0971 7.77984 26.1212C7.78044 26.1214 7.7811 26.1211 7.7817 26.1212C8.02651 26.1693 8.27688 26.2173 8.52947 26.2623C8.78264 26.3073 9.0397 26.3499 9.2976 26.3903C9.55552 26.4307 9.81356 26.4691 10.0732 26.5035C10.0738 26.5035 10.0744 26.5034 10.075 26.5035C10.4638 26.5549 10.8543 26.5996 11.2384 26.6334C11.3666 26.6446 11.4937 26.6541 11.6206 26.663C11.8745 26.6809 12.1256 26.6946 12.3721 26.702C12.6185 26.7095 12.871 26.7135 13.1273 26.715C13.6489 26.718 14.1889 26.708 14.7452 26.6909C15.5552 26.6659 16.3986 26.6235 17.2612 26.5721C18.4252 26.5028 19.6243 26.4182 20.8311 26.342C21.7232 26.2859 22.6182 26.2347 23.5048 26.1973C23.5283 26.1963 23.5518 26.1946 23.5753 26.1936C24.0143 26.1754 24.4523 26.1609 24.8853 26.1509C25.1809 26.1442 25.475 26.14 25.7666 26.1379C25.9125 26.1369 26.058 26.1358 26.2027 26.1361L33.6133 26.1528L33.0993 28.2866L33.3071 28.3757C33.4109 28.4132 33.6016 28.4308 33.6912 28.4313C33.7416 28.4316 33.7954 28.4269 33.8508 28.4165C33.8692 28.413 33.8878 28.4081 33.9064 28.4035C33.9245 28.399 33.944 28.3942 33.9621 28.3887C33.9994 28.3772 34.0371 28.3636 34.0734 28.3478C34.1816 28.3007 34.2833 28.2332 34.3573 28.1512C34.3579 28.1505 34.3586 28.1499 34.3591 28.1493C34.3962 28.1079 34.4252 28.0631 34.4463 28.0139L35.1681 26.1547L41.6958 26.1696C41.7401 26.1918 41.7834 26.2138 41.8275 26.2345C42.0044 26.3176 42.1785 26.3887 42.3526 26.4497C42.4394 26.4802 42.5259 26.5077 42.6124 26.5332C42.9152 26.6227 43.2173 26.6847 43.5234 26.7262C43.6984 26.7499 43.8753 26.7674 44.0541 26.78C44.1435 26.7863 44.2342 26.7907 44.325 26.7948C44.5065 26.8032 44.6895 26.8075 44.8779 26.8097C45.2548 26.8141 45.6485 26.8097 46.0654 26.8097C46.6835 26.8097 47.272 26.7781 47.8337 26.7169C48.0583 26.6924 48.2784 26.6636 48.4942 26.6297C48.9257 26.5619 49.339 26.4742 49.7355 26.3699C49.8346 26.3439 49.9336 26.3166 50.0305 26.2883C50.3214 26.2035 50.6013 26.1087 50.8729 26.0044C50.9634 25.9697 51.0535 25.9355 51.1419 25.8987C51.3187 25.825 51.4912 25.7468 51.6596 25.6649C51.7438 25.6239 51.8279 25.5817 51.9101 25.5387C52.0743 25.4527 52.2347 25.3618 52.3906 25.2678C52.4686 25.2208 52.5448 25.172 52.6207 25.1231C53.0004 24.8784 53.3548 24.6109 53.6839 24.3197C53.9468 24.0869 54.1946 23.8399 54.4261 23.5793C54.4264 23.579 54.4258 23.5778 54.4261 23.5775C54.4837 23.5126 54.5411 23.4473 54.5968 23.3808C54.5971 23.3804 54.5965 23.3793 54.5968 23.3789C54.6524 23.3124 54.7081 23.2449 54.7619 23.1767C54.7622 23.1763 54.7616 23.1752 54.7619 23.1748C54.9237 22.9695 55.0774 22.7581 55.222 22.5384C55.2223 22.538 55.2218 22.537 55.222 22.5365C55.2701 22.4636 55.3188 22.3902 55.3649 22.3157C55.3652 22.3153 55.3646 22.3143 55.3649 22.3139C55.5039 22.0896 55.6361 21.8595 55.7583 21.6218C55.7585 21.6213 55.758 21.6204 55.7583 21.62C55.7988 21.541 55.8383 21.461 55.877 21.3806C55.8773 21.3801 55.8768 21.3793 55.877 21.3788C55.9157 21.2984 55.9552 21.2174 55.9921 21.1357C55.9923 21.1352 55.9918 21.1343 55.9921 21.1338C56.0661 20.9698 56.1368 20.8042 56.2036 20.6347C56.2038 20.6342 56.2033 20.6334 56.2036 20.6329C56.2368 20.5484 56.2686 20.4626 56.3001 20.3768C56.3002 20.3763 56.2999 20.3755 56.3001 20.375C56.3315 20.2892 56.3631 20.2023 56.3928 20.1152C56.4225 20.0281 56.4521 19.9401 56.48 19.8517C56.4802 19.8512 56.4799 19.8504 56.48 19.8499C56.508 19.7615 56.5355 19.6723 56.5617 19.5827C56.5619 19.5821 56.5615 19.5814 56.5617 19.5808C56.5878 19.4912 56.6133 19.4008 56.6378 19.3099C56.6379 19.3093 56.6376 19.3086 56.6378 19.3081C56.7113 19.0344 56.7784 18.7555 56.8363 18.4712V18.4694C56.8555 18.375 56.8726 18.2791 56.8901 18.1836V18.1818C57.0133 17.5098 57.0957 16.8125 57.1369 16.0907C57.1369 16.0901 57.1368 16.0894 57.1369 16.0888C57.1427 15.9862 57.1475 15.8824 57.1517 15.779C57.1517 15.7783 57.1517 15.7777 57.1517 15.7771C57.1602 15.5695 57.1664 15.361 57.1684 15.15C57.1684 15.1494 57.1684 15.1487 57.1684 15.1481C57.1694 15.0423 57.169 14.9357 57.1684 14.829C57.1684 14.7912 57.1671 14.7535 57.1666 14.7158C57.1672 14.6781 57.1684 14.6404 57.1684 14.6026C57.169 14.4959 57.1694 14.3894 57.1684 14.2835C57.1684 14.2829 57.1684 14.2822 57.1684 14.2816C57.1664 14.0705 57.1602 13.8621 57.1517 13.6545C57.1517 13.6539 57.1517 13.6533 57.1517 13.6527C57.1475 13.5492 57.1427 13.4454 57.1369 13.3428C57.1368 13.3422 57.1369 13.3416 57.1369 13.3409C57.0957 12.6191 57.0133 11.9219 56.8901 11.2498V11.248C56.8726 11.1525 56.8555 11.0566 56.8363 10.9622V10.9604C56.7784 10.6761 56.7113 10.3973 56.6378 10.1235C56.6376 10.1229 56.6379 10.1223 56.6378 10.1217C56.6133 10.0308 56.5878 9.94042 56.5617 9.85079C56.5615 9.85019 56.5619 9.84952 56.5617 9.84893C56.5355 9.75931 56.508 9.67013 56.48 9.58175C56.4799 9.58121 56.4802 9.58042 56.48 9.57989C56.4521 9.49151 56.4225 9.40352 56.3928 9.31641C56.3631 9.22931 56.3315 9.14246 56.3001 9.05665C56.2999 9.05611 56.3002 9.05533 56.3001 9.0548C56.2686 8.96899 56.2368 8.88323 56.2036 8.79874C56.2033 8.79821 56.2038 8.79742 56.2036 8.79689C56.1368 8.6274 56.0661 8.46179 55.9921 8.29777C55.9918 8.2973 55.9923 8.29645 55.9921 8.29592C55.9552 8.21417 55.9157 8.1332 55.877 8.05285C55.8768 8.05238 55.8773 8.05147 55.877 8.051C55.8383 7.97065 55.7988 7.89056 55.7583 7.81164C55.758 7.81117 55.7585 7.81026 55.7583 7.80979C55.6361 7.57207 55.5039 7.34202 55.3649 7.11772C55.3646 7.1173 55.3652 7.11633 55.3649 7.11586C55.3188 7.04139 55.2701 6.96801 55.222 6.89506C55.2218 6.89464 55.2223 6.89362 55.222 6.89321C55.0774 6.67353 54.9237 6.46211 54.7619 6.25677C54.7616 6.25641 54.7622 6.25527 54.7619 6.25492C54.7081 6.18672 54.6524 6.11923 54.5968 6.05267C54.5965 6.05232 54.5971 6.05117 54.5968 6.05082C54.5411 5.98427 54.4837 5.91903 54.4261 5.85414C54.4258 5.85379 54.4264 5.85264 54.4261 5.85229C54.1946 5.5917 53.9468 5.34467 53.6839 5.11194C53.3548 4.82066 53.0003 4.55315 52.6207 4.30854C52.5448 4.25961 52.4686 4.21079 52.3906 4.16381C52.2347 4.06985 52.0743 3.97893 51.9101 3.89291C51.8279 3.8499 51.7438 3.80773 51.6596 3.76674C51.4912 3.68477 51.3187 3.60666 51.1419 3.53295C51.0535 3.4961 50.9634 3.46194 50.8729 3.42719C50.6013 3.32294 50.3214 3.22814 50.0305 3.14331C49.9336 3.11503 49.8346 3.08774 49.7355 3.06167C49.339 2.9574 48.9257 2.86974 48.4942 2.8019C48.2785 2.76799 48.0583 2.73919 47.8337 2.71469C47.2721 2.65338 46.6835 2.62184 46.0654 2.62184C45.6486 2.62184 45.2548 2.61744 44.8779 2.62184C44.6895 2.62405 44.5065 2.62838 44.325 2.63669C44.2342 2.64084 44.1435 2.64523 44.0541 2.65153C43.8753 2.66414 43.6984 2.68163 43.5234 2.70534C43.2173 2.74681 42.9152 2.8088 42.6124 2.89831C42.5259 2.92388 42.4394 2.95137 42.3526 2.9818C42.1785 3.04284 42.0044 3.11394 41.8275 3.19704C41.7834 3.21774 41.7401 3.23978 41.6958 3.26198L35.1681 3.27682L34.4463 1.41767C34.4252 1.36839 34.3962 1.32366 34.3591 1.28223C34.3586 1.2816 34.3579 1.28101 34.3573 1.28038C34.2833 1.19837 34.1816 1.13081 34.0734 1.0837C34.0371 1.06791 33.9994 1.05434 33.9621 1.04288C33.944 1.03734 33.9245 1.03252 33.9064 1.02803C33.8878 1.02342 33.8692 1.01852 33.8508 1.01504C33.7954 1.0046 33.7416 0.999903 33.6912 1.0002L33.6912 1.00002Z" fill="black" stroke="#191919" stroke-width="0.0145833"></path>
    <path fill-rule="evenodd" clip-rule="evenodd" d="M33.6906 1.00069C33.601 1.00122 33.4102 1.01886 33.3065 1.05635L33.0987 1.14541L33.6126 3.27365L26.202 3.29035C23.9942 3.29503 21.6432 3.13987 19.3601 2.98917C16.8564 2.82392 14.4342 2.66405 12.3718 2.72629C8.4286 2.84526 3.33968 4.38879 3.33968 4.38879L2.52702 4.6133C1.38399 4.92776 1.00001 10.3945 1.00001 14.5159C1.00001 14.552 1.00048 14.5886 1.00096 14.6252C1.00135 14.6556 1.00174 14.686 1.00187 14.7163C1.00174 14.7465 1.00135 14.7769 1.00096 14.8073C1.00048 14.8439 1.00001 14.8805 1.00001 14.9166C1.00001 19.0381 1.38401 24.5045 2.52702 24.8192L3.33968 25.0437C3.33968 25.0437 8.42877 26.5872 12.3718 26.7062C14.4343 26.7684 16.8565 26.6086 19.3603 26.4433C21.6433 26.2926 23.9943 26.1375 26.202 26.1421L33.6126 26.1588L33.0987 28.2871L33.3065 28.3762C33.4102 28.4136 33.601 28.4313 33.6906 28.4318C33.7409 28.4321 33.7948 28.4274 33.8501 28.417C33.865 28.4142 33.88 28.4104 33.8951 28.4066L33.9058 28.404C33.9239 28.3995 33.9433 28.3947 33.9614 28.3891C33.9988 28.3777 34.0365 28.3641 34.0728 28.3483C34.1809 28.3013 34.2826 28.2353 34.3567 28.1535L34.3585 28.1516C34.3956 28.1103 34.4246 28.0654 34.4457 28.0162L35.1675 26.1607L41.6952 26.1756C42.9914 26.8233 44.1743 26.8187 45.6402 26.8131C45.7791 26.8126 45.9205 26.812 46.0648 26.812C49.2948 26.812 51.7443 25.9551 53.5097 24.4772L53.5076 24.5167L53.8193 24.2291C54.7627 23.3575 55.4998 22.299 56.0403 21.0971L56.1644 20.821L56.1317 20.8245C56.8505 19.088 57.18 17.0591 57.1679 14.8551C57.1679 14.8215 57.1673 14.7877 57.1667 14.754V14.7529L57.166 14.7159L57.1667 14.6789C57.1673 14.6449 57.1679 14.6107 57.1679 14.5768C57.1799 12.3734 56.8507 10.345 56.1322 8.60879L56.1646 8.61257L56.0403 8.33612C55.4998 7.13419 54.7627 6.07572 53.8193 5.20409L53.5076 4.91649L53.5096 4.95465C51.7443 3.47673 49.2948 2.61981 46.0648 2.61981C45.9204 2.61981 45.779 2.61927 45.6401 2.61873C44.1742 2.61309 42.9914 2.60854 41.6952 3.25625L35.1675 3.2711L34.4457 1.41562C34.4246 1.36644 34.3956 1.32153 34.3585 1.28018L34.3567 1.27833C34.2826 1.19648 34.1809 1.13053 34.0728 1.0835C34.0365 1.06774 33.9988 1.05413 33.9614 1.04268C33.9433 1.03716 33.9239 1.03232 33.9058 1.02784L33.8954 1.02525C33.8802 1.02146 33.8651 1.01768 33.8501 1.01485C33.7948 1.00443 33.7409 1.00039 33.6906 1.00069ZM53.5096 4.95465L53.5299 5.33954C53.6245 7.03481 54.583 8.42812 55.8622 8.57731L56.1322 8.60879C55.5356 7.16692 54.6705 5.92651 53.5096 4.95465ZM56.1317 20.8245L55.8622 20.8559C54.583 21.0051 53.6245 22.3984 53.5299 24.0937L53.5097 24.4772C54.6702 23.5057 55.5351 22.2658 56.1317 20.8245ZM21.2118 22.4677C19.2308 22.4677 17.3342 22.5746 15.5824 22.7683C16.7365 24.9594 19.4807 24.8621 23.5204 24.7187C24.8133 24.6728 26.2388 24.6222 27.7875 24.6405C29.5665 24.6614 31.1332 24.6977 32.5133 24.7296L32.5143 24.7296C33.4222 24.7506 34.2498 24.7698 35.0033 24.7815C32.2032 23.396 27.075 22.4677 21.2118 22.4677ZM12.9088 7.75104L8.29241 8.49138C6.68037 8.74991 5.38618 11.3873 5.26434 14.7163C5.38619 18.0455 6.68037 20.6828 8.29241 20.9411L12.9088 21.6815C13.6982 21.6815 14.3338 21.0459 14.3338 20.2565V9.17592C14.3338 8.38647 13.6982 7.75104 12.9088 7.75104ZM38.0053 5.77675C38.1768 5.73895 38.3504 5.71923 38.5267 5.71923C41.2221 5.71923 43.4072 9.12498 43.414 14.7163C43.4072 20.3074 41.222 23.7134 38.5267 23.7134C38.3504 23.7134 38.1768 23.6936 38.0053 23.6558L38.0035 23.6577L34.2128 22.9267C33.1602 22.5345 32.3128 22.0793 32.3128 21.0267V8.40592C32.3128 7.35332 33.1602 6.89808 34.2128 6.50592L38.0035 5.7749L38.0053 5.77675ZM21.2118 6.9655C19.2308 6.9655 17.3342 6.85863 15.5824 6.66492C16.7365 4.4738 19.4807 4.57118 23.5204 4.71452C24.8133 4.7604 26.2388 4.81099 27.7875 4.79276C29.5669 4.77182 31.134 4.73555 32.5143 4.7036C33.4224 4.68258 34.2497 4.66343 35.0033 4.65175C32.2032 6.0372 27.075 6.9655 21.2118 6.9655Z"></path>
  </symbol>
</svg>